<svg width="116" height="30" viewBox="0 0 116 30" fill="none" xmlns="http://www.w3.org/2000/svg">
<path d="M1.93591 11.2291L15.9739 3.74219L30.0118 11.2291L15.9739 18.716L1.93591 11.2291Z" stroke="#FF6636" stroke-width="2.24607" stroke-linecap="round" stroke-linejoin="round"/>
<path d="M22.9929 28.076V14.9739L15.9739 11.2305" stroke="#FF6636" stroke-width="2.24607" stroke-linecap="round" stroke-linejoin="round"/>
<path d="M26.7363 12.9766V19.3546C26.7367 19.5565 26.6714 19.753 26.5504 19.9146C25.7623 20.9632 22.4375 24.7996 15.9739 24.7996C9.51021 24.7996 6.18545 20.9632 5.39737 19.9146C5.2763 19.753 5.21104 19.5565 5.21143 19.3546V12.9766" stroke="#FF6636" stroke-width="2.24607" stroke-linecap="round" stroke-linejoin="round"/>
<path d="M38.6558 24V6.57592H49.9883V9.22186H41.8123V13.9522H49.4013V16.5982H41.8123V21.3541H50.0564V24H38.6558ZM60.2745 15.4751V18.0105H52.4302V15.4751H60.2745ZM69.3206 10.9319V13.3141H61.8082V10.9319H69.3206ZM63.6629 7.80105H66.7427V20.0694C66.7427 20.4834 66.8051 20.801 66.9299 21.0223C67.0604 21.2378 67.2305 21.3853 67.4404 21.4647C67.6502 21.5441 67.8828 21.5838 68.138 21.5838C68.3309 21.5838 68.5067 21.5696 68.6655 21.5412C68.83 21.5129 68.9548 21.4873 69.0399 21.4647L69.5588 23.8724C69.3943 23.9291 69.159 23.9915 68.8527 24.0596C68.5521 24.1276 68.1834 24.1673 67.7467 24.1787C66.9753 24.2014 66.2805 24.0851 65.6622 23.8298C65.044 23.5689 64.5534 23.1662 64.1904 22.6217C63.833 22.0772 63.6572 21.3966 63.6629 20.5798V7.80105ZM79.5068 18.5039V10.9319H82.5867V24H79.6004V21.6774H79.4643C79.1693 22.409 78.6844 23.0074 78.0094 23.4725C77.3401 23.9376 76.5149 24.1702 75.5336 24.1702C74.6772 24.1702 73.92 23.9801 73.262 23.6001C72.6098 23.2144 72.0993 22.6558 71.7306 21.9241C71.362 21.1867 71.1776 20.2962 71.1776 19.2526V10.9319H74.2575V18.7762C74.2575 19.6043 74.4843 20.2622 74.9381 20.75C75.3918 21.2378 75.9874 21.4817 76.7247 21.4817C77.1785 21.4817 77.6181 21.3711 78.0435 21.1499C78.4689 20.9287 78.8177 20.5997 79.0899 20.163C79.3678 19.7205 79.5068 19.1675 79.5068 18.5039ZM91.5605 10.9319V13.3141H84.048V10.9319H91.5605ZM85.9028 7.80105H88.9826V20.0694C88.9826 20.4834 89.045 20.801 89.1698 21.0223C89.3002 21.2378 89.4704 21.3853 89.6802 21.4647C89.8901 21.5441 90.1227 21.5838 90.3779 21.5838C90.5707 21.5838 90.7466 21.5696 90.9054 21.5412C91.0699 21.5129 91.1946 21.4873 91.2797 21.4647L91.7987 23.8724C91.6342 23.9291 91.3988 23.9915 91.0925 24.0596C90.7919 24.1276 90.4233 24.1673 89.9865 24.1787C89.2151 24.2014 88.5203 24.0851 87.9021 23.8298C87.2839 23.5689 86.7932 23.1662 86.4302 22.6217C86.0729 22.0772 85.8971 21.3966 85.9028 20.5798V7.80105ZM98.9774 24.2552C97.7012 24.2552 96.5952 23.9745 95.6593 23.413C94.7234 22.8514 93.9974 22.0659 93.4813 21.0563C92.9708 20.0467 92.7156 18.8669 92.7156 17.517C92.7156 16.1671 92.9708 14.9845 93.4813 13.9692C93.9974 12.954 94.7234 12.1656 95.6593 11.6041C96.5952 11.0425 97.7012 10.7618 98.9774 10.7618C100.254 10.7618 101.36 11.0425 102.295 11.6041C103.231 12.1656 103.954 12.954 104.465 13.9692C104.981 14.9845 105.239 16.1671 105.239 17.517C105.239 18.8669 104.981 20.0467 104.465 21.0563C103.954 22.0659 103.231 22.8514 102.295 23.413C101.36 23.9745 100.254 24.2552 98.9774 24.2552ZM98.9944 21.788C99.6864 21.788 100.265 21.5979 100.73 21.2179C101.195 20.8322 101.541 20.3161 101.768 19.6695C102 19.0229 102.117 18.3026 102.117 17.5085C102.117 16.7088 102 15.9856 101.768 15.339C101.541 14.6867 101.195 14.1678 100.73 13.7821C100.265 13.3964 99.6864 13.2035 98.9944 13.2035C98.2854 13.2035 97.6955 13.3964 97.2248 13.7821C96.7597 14.1678 96.4108 14.6867 96.1783 15.339C95.9514 15.9856 95.838 16.7088 95.838 17.5085C95.838 18.3026 95.9514 19.0229 96.1783 19.6695C96.4108 20.3161 96.7597 20.8322 97.2248 21.2179C97.6955 21.5979 98.2854 21.788 98.9944 21.788ZM107.134 24V10.9319H110.121V13.1099H110.257C110.495 12.3556 110.903 11.7742 111.482 11.3658C112.066 10.9518 112.733 10.7448 113.481 10.7448C113.651 10.7448 113.841 10.7533 114.051 10.7703C114.267 10.7816 114.446 10.8015 114.587 10.8298V13.663C114.457 13.6176 114.25 13.5779 113.966 13.5438C113.688 13.5041 113.419 13.4843 113.158 13.4843C112.596 13.4843 112.092 13.6062 111.644 13.8501C111.201 14.0884 110.852 14.4202 110.597 14.8455C110.342 15.2709 110.214 15.7616 110.214 16.3174V24H107.134Z" fill="white"/>
</svg>
