<svg width="413" height="22" viewBox="0 0 413 22" fill="none" xmlns="http://www.w3.org/2000/svg">
<path d="M10.3446 15.901L14.2849 18.3974C14.7886 18.7165 15.4139 18.2419 15.2644 17.654L14.126 13.1756C14.0939 13.0509 14.0977 12.9197 14.137 12.797C14.1762 12.6743 14.2492 12.5652 14.3477 12.4822L17.8811 9.54132C18.3453 9.1549 18.1057 8.38439 17.5092 8.34567L12.8949 8.0462C12.7706 8.03732 12.6514 7.99332 12.5511 7.91931C12.4509 7.84531 12.3737 7.74435 12.3286 7.62819L10.6076 3.29436C10.5609 3.17106 10.4777 3.06492 10.3692 2.99002C10.2606 2.91511 10.1319 2.875 10 2.875C9.86813 2.875 9.73938 2.91511 9.63085 2.99002C9.52232 3.06492 9.43914 3.17106 9.39236 3.29436L7.6714 7.62819C7.62631 7.74435 7.54914 7.84531 7.4489 7.91931C7.34865 7.99332 7.22944 8.03732 7.10515 8.0462L2.49078 8.34567C1.89429 8.38439 1.65466 9.1549 2.11894 9.54132L5.65232 12.4822C5.75079 12.5652 5.82383 12.6743 5.86305 12.797C5.90226 12.9197 5.90606 13.0509 5.874 13.1756L4.81824 17.3288C4.63889 18.0343 5.38929 18.6038 5.99369 18.2209L9.65539 15.901C9.75837 15.8354 9.87792 15.8006 10 15.8006C10.1221 15.8006 10.2416 15.8354 10.3446 15.901Z" fill="#FD8E1F"/>
<path d="M26.7656 14.0114H31.593V16H33.0597V14.0114H34.407V12.7088H33.0597V5.81818H31.1655L26.7656 12.7685V14.0114ZM31.603 12.7088H28.3764V12.6293L31.5234 7.64773H31.603V12.7088ZM36.616 16.0945C37.1579 16.0945 37.6104 15.652 37.6104 15.1001C37.6104 14.5582 37.1579 14.1108 36.616 14.1108C36.0692 14.1108 35.6217 14.5582 35.6217 15.1001C35.6217 15.652 36.0692 16.0945 36.616 16.0945ZM42.6135 16.1392C44.7413 16.1591 46.1532 14.6278 46.1483 12.674C46.1532 10.7251 44.7363 9.32812 42.9714 9.32812C41.8976 9.32812 40.9679 9.84517 40.4459 10.7053H40.3713C40.3763 8.39347 41.2513 7.02131 42.7427 7.02131C43.7221 7.02131 44.3386 7.6179 44.5474 8.46307H46.0638C45.8301 6.85227 44.5623 5.67898 42.7427 5.67898C40.3763 5.67898 38.8997 7.71236 38.8997 11.2521C38.8947 15.0007 40.8038 16.1243 42.6135 16.1392ZM42.6085 14.8466C41.4253 14.8466 40.5602 13.8523 40.5602 12.7088C40.5652 11.5703 41.47 10.576 42.6433 10.576C43.8066 10.576 44.6618 11.5156 44.6568 12.6939C44.6618 13.897 43.7718 14.8466 42.6085 14.8466Z" fill="#1D2026"/>
<path d="M60.0634 9C59.6856 6.91193 58.0151 5.67898 55.9668 5.67898C53.3617 5.67898 51.4725 7.6875 51.4725 10.9091C51.4725 14.1307 53.3617 16.1392 55.9668 16.1392C58.0151 16.1392 59.6856 14.9062 60.0634 12.8182H58.8304C58.5322 14.2301 57.3191 14.9858 55.9668 14.9858C54.1174 14.9858 52.6657 13.554 52.6657 10.9091C52.6657 8.2642 54.1174 6.83239 55.9668 6.83239C57.3191 6.83239 58.5322 7.58807 58.8304 9H60.0634ZM64.8589 16.1591C66.9271 16.1591 68.3192 14.5881 68.3192 12.2216C68.3192 9.83523 66.9271 8.2642 64.8589 8.2642C62.7908 8.2642 61.3987 9.83523 61.3987 12.2216C61.3987 14.5881 62.7908 16.1591 64.8589 16.1591ZM64.8589 15.1051C63.2879 15.1051 62.572 13.7528 62.572 12.2216C62.572 10.6903 63.2879 9.31818 64.8589 9.31818C66.43 9.31818 67.1459 10.6903 67.1459 12.2216C67.1459 13.7528 66.43 15.1051 64.8589 15.1051ZM74.7827 12.8778C74.7827 14.3097 73.6889 14.9659 72.8139 14.9659C71.8395 14.9659 71.1435 14.25 71.1435 13.1364V8.36364H69.9702V13.2159C69.9702 15.1648 71.0043 16.0994 72.4361 16.0994C73.5895 16.0994 74.3452 15.483 74.7031 14.7074H74.7827V16H75.956V8.36364H74.7827V12.8778ZM77.965 16H79.1383V11.1676C79.1383 10.1335 79.9536 9.37784 81.0672 9.37784C81.3804 9.37784 81.7036 9.4375 81.7831 9.45739V8.2642C81.6489 8.25426 81.3407 8.24432 81.1667 8.24432C80.2519 8.24432 79.4564 8.76136 79.178 9.51705H79.0985V8.36364H77.965V16ZM88.443 10.0739C88.0751 8.99006 87.2499 8.2642 85.7385 8.2642C84.1277 8.2642 82.9345 9.17898 82.9345 10.4716C82.9345 11.5256 83.5609 12.2315 84.9629 12.5597L86.2356 12.858C87.0062 13.0369 87.3692 13.4048 87.3692 13.9318C87.3692 14.5881 86.6731 15.125 85.5794 15.125C84.6199 15.125 84.0183 14.7124 83.8095 13.892L82.6959 14.1705C82.9693 15.468 84.0382 16.1591 85.5993 16.1591C87.3741 16.1591 88.5822 15.1896 88.5822 13.8722C88.5822 12.8082 87.916 12.1371 86.5538 11.804L85.4203 11.5256C84.5155 11.3018 84.1078 10.9986 84.1078 10.4119C84.1078 9.75568 84.8038 9.27841 85.7385 9.27841C86.7626 9.27841 87.1852 9.84517 87.3891 10.3722L88.443 10.0739ZM93.4101 16.1591C94.9612 16.1591 96.0948 15.3835 96.4527 14.2301L95.3192 13.9119C95.0209 14.7074 94.3298 15.1051 93.4101 15.1051C92.033 15.1051 91.0834 14.2152 91.0287 12.5795H96.572V12.0824C96.572 9.23864 94.8817 8.2642 93.2908 8.2642C91.2226 8.2642 89.8504 9.89489 89.8504 12.2415C89.8504 14.5881 91.2027 16.1591 93.4101 16.1591ZM91.0287 11.5653C91.1083 10.3771 91.9485 9.31818 93.2908 9.31818C94.5635 9.31818 95.3789 10.2727 95.3789 11.5653H91.0287ZM102.014 16H103.188V11.1676C103.188 10.1335 104.003 9.37784 105.117 9.37784C105.43 9.37784 105.753 9.4375 105.833 9.45739V8.2642C105.698 8.25426 105.39 8.24432 105.216 8.24432C104.301 8.24432 103.506 8.76136 103.227 9.51705H103.148V8.36364H102.014V16ZM109.33 16.179C110.663 16.179 111.359 15.4631 111.598 14.9659H111.657V16H112.83V10.9688C112.83 8.54261 110.981 8.2642 110.007 8.2642C108.853 8.2642 107.541 8.66193 106.944 10.054L108.058 10.4517C108.316 9.89489 108.928 9.2983 110.046 9.2983C111.125 9.2983 111.657 9.87003 111.657 10.8494V10.8892C111.657 11.456 111.08 11.4062 109.688 11.5852C108.272 11.7692 106.725 12.0824 106.725 13.8324C106.725 15.3239 107.879 16.179 109.33 16.179ZM109.509 15.125C108.575 15.125 107.899 14.7074 107.899 13.892C107.899 12.9972 108.714 12.7188 109.629 12.5994C110.126 12.5398 111.458 12.4006 111.657 12.1619V13.2358C111.657 14.1903 110.901 15.125 109.509 15.125ZM118.153 8.36364H116.522V6.53409H115.349V8.36364H114.196V9.35795H115.349V14.1307C115.349 15.4631 116.423 16.0994 117.417 16.0994C117.855 16.0994 118.133 16.0199 118.292 15.9602L118.054 14.9062C117.954 14.9261 117.795 14.9659 117.537 14.9659C117.019 14.9659 116.522 14.8068 116.522 13.8125V9.35795H118.153V8.36364ZM119.778 16H120.951V8.36364H119.778V16ZM120.375 7.09091C120.832 7.09091 121.21 6.73295 121.21 6.29545C121.21 5.85795 120.832 5.5 120.375 5.5C119.917 5.5 119.539 5.85795 119.539 6.29545C119.539 6.73295 119.917 7.09091 120.375 7.09091ZM124.133 11.4062C124.133 10.0739 124.959 9.31818 126.082 9.31818C127.171 9.31818 127.832 10.0291 127.832 11.2273V16H129.006V11.1477C129.006 9.19886 127.967 8.2642 126.42 8.2642C125.267 8.2642 124.551 8.78125 124.193 9.55682H124.094V8.36364H122.96V16H124.133V11.4062ZM134.092 19.0227C135.922 19.0227 137.393 18.1875 137.393 16.2188V8.36364H136.26V9.5767H136.14C135.882 9.17898 135.405 8.2642 133.913 8.2642C131.984 8.2642 130.652 9.79545 130.652 12.142C130.652 14.5284 132.044 15.8807 133.893 15.8807C135.385 15.8807 135.862 15.0057 136.12 14.5881H136.22V16.1392C136.22 17.4119 135.325 17.9886 134.092 17.9886C132.705 17.9886 132.218 17.2578 131.905 16.8352L130.97 17.4915C131.447 18.2919 132.387 19.0227 134.092 19.0227ZM134.052 14.8267C132.581 14.8267 131.825 13.7131 131.825 12.1222C131.825 10.571 132.561 9.31818 134.052 9.31818C135.484 9.31818 136.24 10.4716 136.24 12.1222C136.24 13.8125 135.464 14.8267 134.052 14.8267Z" fill="#4E5566"/>
<path d="M169.875 13.5C172.119 13.5 173.938 11.6812 173.938 9.4375C173.938 7.19384 172.119 5.375 169.875 5.375C167.631 5.375 165.812 7.19384 165.812 9.4375C165.812 11.6812 167.631 13.5 169.875 13.5Z" stroke="#564FFD" stroke-width="1.5" stroke-miterlimit="10"/>
<path d="M175.142 5.52628C175.7 5.36885 176.286 5.33299 176.86 5.4211C177.434 5.50922 177.982 5.71928 178.468 6.03713C178.954 6.35497 179.366 6.77323 179.676 7.26372C179.987 7.75421 180.189 8.30555 180.268 8.8806C180.348 9.45565 180.303 10.0411 180.137 10.5974C179.971 11.1537 179.688 11.6681 179.307 12.1058C178.926 12.5435 178.455 12.8944 177.927 13.1349C177.398 13.3754 176.824 13.4999 176.244 13.5" stroke="#564FFD" stroke-width="1.5" stroke-linecap="round" stroke-linejoin="round"/>
<path d="M164.25 16.4216C164.884 15.5191 165.726 14.7825 166.705 14.274C167.684 13.7655 168.771 13.5 169.875 13.5C170.978 13.5 172.065 13.7654 173.044 14.2738C174.023 14.7822 174.865 15.5187 175.5 16.4212" stroke="#564FFD" stroke-width="1.5" stroke-linecap="round" stroke-linejoin="round"/>
<path d="M176.244 13.5C177.347 13.4992 178.434 13.7643 179.413 14.2728C180.393 14.7813 181.235 15.5182 181.869 16.4212" stroke="#564FFD" stroke-width="1.5" stroke-linecap="round" stroke-linejoin="round"/>
<path d="M193.34 16.1392C195.388 16.1392 196.85 14.6925 196.845 12.7088C196.85 10.7401 195.478 9.30824 193.624 9.30824C192.868 9.30824 192.167 9.59659 191.769 9.98438H191.71L192.033 7.13565H196.353V5.81818H190.755L190.183 10.9489L191.59 11.1577C191.973 10.8146 192.659 10.581 193.276 10.581C194.484 10.5909 195.359 11.4957 195.359 12.7386C195.359 13.9616 194.509 14.8466 193.34 14.8466C192.356 14.8466 191.575 14.2202 191.496 13.3452H190.004C190.064 14.9659 191.471 16.1392 193.34 16.1392ZM200.119 14.608H198.688L198.638 15.1648C198.524 16.5121 198.205 17.8693 198.071 18.4858H199.125C199.364 17.8345 199.891 16.343 200.045 15.1499L200.119 14.608ZM205.248 16.1392C207.326 16.1392 208.852 14.8963 208.847 13.206C208.852 11.9183 208.072 10.9936 206.72 10.7848V10.7053C207.784 10.4318 208.475 9.59659 208.47 8.45312C208.475 6.95668 207.247 5.67898 205.288 5.67898C203.419 5.67898 201.917 6.80753 201.867 8.46307H203.354C203.389 7.52841 204.269 6.96165 205.268 6.96165C206.307 6.96165 206.988 7.59304 206.983 8.53267C206.988 9.51705 206.198 10.1634 205.069 10.1634H204.209V11.4162H205.069C206.481 11.4162 207.296 12.1321 207.296 13.1562C207.296 14.1456 206.436 14.8168 205.238 14.8168C204.134 14.8168 203.274 14.25 203.215 13.3452H201.654C201.718 15.0057 203.19 16.1392 205.248 16.1392ZM210.373 14.0114H215.2V16H216.667V14.0114H218.014V12.7088H216.667V5.81818H214.773L210.373 12.7685V14.0114ZM215.21 12.7088H211.984V12.6293L215.131 7.64773H215.21V12.7088ZM219.607 16H226.309V14.6825H221.725V14.608L223.748 12.4901C225.613 10.6058 226.145 9.70597 226.145 8.56747C226.145 6.93182 224.812 5.67898 222.893 5.67898C220.989 5.67898 219.597 6.91193 219.597 8.77131H221.064C221.059 7.67756 221.765 6.96165 222.863 6.96165C223.897 6.96165 224.683 7.59801 224.683 8.61222C224.683 9.51207 224.146 10.1584 223.052 11.3168L219.607 14.8864V16Z" fill="#1D2026"/>
<path d="M237.672 8.36364H238.865C238.811 6.82741 237.394 5.67898 235.425 5.67898C233.476 5.67898 231.945 6.8125 231.945 8.52273C231.945 9.89489 232.939 10.7102 234.53 11.1676L235.783 11.5256C236.857 11.8239 237.811 12.2017 237.811 13.2159C237.811 14.3295 236.737 15.0653 235.325 15.0653C234.112 15.0653 233.039 14.5284 232.939 13.375H231.666C231.786 15.0455 233.138 16.179 235.325 16.179C237.672 16.179 239.004 14.8864 239.004 13.2358C239.004 11.3267 237.195 10.7102 236.141 10.4318L235.107 10.1534C234.351 9.95455 233.138 9.55682 233.138 8.46307C233.138 7.48864 234.033 6.77273 235.385 6.77273C236.618 6.77273 237.553 7.35938 237.672 8.36364ZM244.054 8.36364H242.423V6.53409H241.25V8.36364H240.096V9.35795H241.25V14.1307C241.25 15.4631 242.323 16.0994 243.318 16.0994C243.755 16.0994 244.034 16.0199 244.193 15.9602L243.954 14.9062C243.855 14.9261 243.696 14.9659 243.437 14.9659C242.92 14.9659 242.423 14.8068 242.423 13.8125V9.35795H244.054V8.36364ZM250.491 12.8778C250.491 14.3097 249.397 14.9659 248.522 14.9659C247.548 14.9659 246.852 14.25 246.852 13.1364V8.36364H245.678V13.2159C245.678 15.1648 246.713 16.0994 248.144 16.0994C249.298 16.0994 250.053 15.483 250.411 14.7074H250.491V16H251.664V8.36364H250.491V12.8778ZM256.557 16.1591C258.028 16.1591 258.526 15.2443 258.784 14.8267H258.923V16H260.057V5.81818H258.883V9.5767H258.784C258.526 9.17898 258.068 8.2642 256.577 8.2642C254.648 8.2642 253.315 9.79545 253.315 12.2017C253.315 14.6278 254.648 16.1591 256.557 16.1591ZM256.716 15.1051C255.244 15.1051 254.489 13.8125 254.489 12.1818C254.489 10.571 255.224 9.31818 256.716 9.31818C258.148 9.31818 258.903 10.4716 258.903 12.1818C258.903 13.9119 258.128 15.1051 256.716 15.1051ZM265.43 16.1591C266.981 16.1591 268.115 15.3835 268.473 14.2301L267.339 13.9119C267.041 14.7074 266.35 15.1051 265.43 15.1051C264.053 15.1051 263.104 14.2152 263.049 12.5795H268.592V12.0824C268.592 9.23864 266.902 8.2642 265.311 8.2642C263.243 8.2642 261.871 9.89489 261.871 12.2415C261.871 14.5881 263.223 16.1591 265.43 16.1591ZM263.049 11.5653C263.128 10.3771 263.969 9.31818 265.311 9.31818C266.584 9.31818 267.399 10.2727 267.399 11.5653H263.049ZM271.41 11.4062C271.41 10.0739 272.236 9.31818 273.359 9.31818C274.448 9.31818 275.109 10.0291 275.109 11.2273V16H276.282V11.1477C276.282 9.19886 275.243 8.2642 273.697 8.2642C272.544 8.2642 271.828 8.78125 271.47 9.55682H271.371V8.36364H270.237V16H271.41V11.4062ZM281.607 8.36364H279.977V6.53409H278.803V8.36364H277.65V9.35795H278.803V14.1307C278.803 15.4631 279.877 16.0994 280.872 16.0994C281.309 16.0994 281.588 16.0199 281.747 15.9602L281.508 14.9062C281.409 14.9261 281.25 14.9659 280.991 14.9659C280.474 14.9659 279.977 14.8068 279.977 13.8125V9.35795H281.607V8.36364ZM288.505 10.0739C288.137 8.99006 287.312 8.2642 285.8 8.2642C284.189 8.2642 282.996 9.17898 282.996 10.4716C282.996 11.5256 283.623 12.2315 285.025 12.5597L286.297 12.858C287.068 13.0369 287.431 13.4048 287.431 13.9318C287.431 14.5881 286.735 15.125 285.641 15.125C284.682 15.125 284.08 14.7124 283.871 13.892L282.758 14.1705C283.031 15.468 284.1 16.1591 285.661 16.1591C287.436 16.1591 288.644 15.1896 288.644 13.8722C288.644 12.8082 287.978 12.1371 286.616 11.804L285.482 11.5256C284.577 11.3018 284.17 10.9986 284.17 10.4119C284.17 9.75568 284.866 9.27841 285.8 9.27841C286.824 9.27841 287.247 9.84517 287.451 10.3722L288.505 10.0739Z" fill="#4E5566"/>
<path d="M324 18.5C328.142 18.5 331.5 15.1421 331.5 11C331.5 6.85786 328.142 3.5 324 3.5C319.858 3.5 316.5 6.85786 316.5 11C316.5 15.1421 319.858 18.5 324 18.5Z" fill="#FF6636" stroke="#FF6636" stroke-width="1.5" stroke-miterlimit="10"/>
<path d="M326.5 11L322.75 8.5V13.5L326.5 11Z" fill="white" stroke="white" stroke-width="1.5" stroke-linecap="round" stroke-linejoin="round"/>
<path d="M344.524 16.169C346.876 16.169 348.253 14.25 348.253 10.9141C348.253 7.60298 346.856 5.67898 344.524 5.67898C342.188 5.67898 340.795 7.59801 340.79 10.9141C340.79 14.245 342.168 16.1641 344.524 16.169ZM344.524 14.8416C343.147 14.8416 342.317 13.4595 342.317 10.9141C342.322 8.37855 343.152 6.98153 344.524 6.98153C345.891 6.98153 346.727 8.37855 346.727 10.9141C346.727 13.4595 345.896 14.8416 344.524 14.8416ZM353.739 5.81818H352.243L349.703 7.47869V8.95028L352.139 7.35938H352.198V16H353.739V5.81818Z" fill="#1D2026"/>
<path d="M368.598 9C368.22 6.91193 366.55 5.67898 364.501 5.67898C361.896 5.67898 360.007 7.6875 360.007 10.9091C360.007 14.1307 361.896 16.1392 364.501 16.1392C366.55 16.1392 368.22 14.9062 368.598 12.8182H367.365C367.067 14.2301 365.854 14.9858 364.501 14.9858C362.652 14.9858 361.2 13.554 361.2 10.9091C361.2 8.2642 362.652 6.83239 364.501 6.83239C365.854 6.83239 367.067 7.58807 367.365 9H368.598ZM373.393 16.1591C375.462 16.1591 376.854 14.5881 376.854 12.2216C376.854 9.83523 375.462 8.2642 373.393 8.2642C371.325 8.2642 369.933 9.83523 369.933 12.2216C369.933 14.5881 371.325 16.1591 373.393 16.1591ZM373.393 15.1051C371.822 15.1051 371.107 13.7528 371.107 12.2216C371.107 10.6903 371.822 9.31818 373.393 9.31818C374.965 9.31818 375.68 10.6903 375.68 12.2216C375.68 13.7528 374.965 15.1051 373.393 15.1051ZM383.317 12.8778C383.317 14.3097 382.223 14.9659 381.348 14.9659C380.374 14.9659 379.678 14.25 379.678 13.1364V8.36364H378.505V13.2159C378.505 15.1648 379.539 16.0994 380.971 16.0994C382.124 16.0994 382.88 15.483 383.238 14.7074H383.317V16H384.491V8.36364H383.317V12.8778ZM386.499 16H387.673V11.1676C387.673 10.1335 388.488 9.37784 389.602 9.37784C389.915 9.37784 390.238 9.4375 390.318 9.45739V8.2642C390.183 8.25426 389.875 8.24432 389.701 8.24432C388.786 8.24432 387.991 8.76136 387.713 9.51705H387.633V8.36364H386.499V16ZM396.978 10.0739C396.61 8.99006 395.784 8.2642 394.273 8.2642C392.662 8.2642 391.469 9.17898 391.469 10.4716C391.469 11.5256 392.095 12.2315 393.497 12.5597L394.77 12.858C395.541 13.0369 395.904 13.4048 395.904 13.9318C395.904 14.5881 395.208 15.125 394.114 15.125C393.154 15.125 392.553 14.7124 392.344 13.892L391.23 14.1705C391.504 15.468 392.573 16.1591 394.134 16.1591C395.909 16.1591 397.117 15.1896 397.117 13.8722C397.117 12.8082 396.451 12.1371 395.088 11.804L393.955 11.5256C393.05 11.3018 392.642 10.9986 392.642 10.4119C392.642 9.75568 393.338 9.27841 394.273 9.27841C395.297 9.27841 395.72 9.84517 395.924 10.3722L396.978 10.0739ZM401.945 16.1591C403.496 16.1591 404.629 15.3835 404.987 14.2301L403.854 13.9119C403.555 14.7074 402.864 15.1051 401.945 15.1051C400.568 15.1051 399.618 14.2152 399.563 12.5795H405.107V12.0824C405.107 9.23864 403.416 8.2642 401.825 8.2642C399.757 8.2642 398.385 9.89489 398.385 12.2415C398.385 14.5881 399.737 16.1591 401.945 16.1591ZM399.563 11.5653C399.643 10.3771 400.483 9.31818 401.825 9.31818C403.098 9.31818 403.913 10.2727 403.913 11.5653H399.563ZM412.16 10.0739C411.793 8.99006 410.967 8.2642 409.456 8.2642C407.845 8.2642 406.652 9.17898 406.652 10.4716C406.652 11.5256 407.278 12.2315 408.68 12.5597L409.953 12.858C410.724 13.0369 411.087 13.4048 411.087 13.9318C411.087 14.5881 410.391 15.125 409.297 15.125C408.337 15.125 407.736 14.7124 407.527 13.892L406.413 14.1705C406.687 15.468 407.756 16.1591 409.317 16.1591C411.092 16.1591 412.3 15.1896 412.3 13.8722C412.3 12.8082 411.633 12.1371 410.271 11.804L409.138 11.5256C408.233 11.3018 407.825 10.9986 407.825 10.4119C407.825 9.75568 408.521 9.27841 409.456 9.27841C410.48 9.27841 410.903 9.84517 411.106 10.3722L412.16 10.0739Z" fill="#4E5566"/>
</svg>
